<svg xmlns="http://www.w3.org/2000/svg" viewBox="0 0 800 840">
  <!-- Background -->
  <rect width="800" height="840" fill="#f9f9f9"/>
  
  <!-- Title -->
  <text x="400" y="30" font-family="Arial" font-size="24" text-anchor="middle" font-weight="bold">Decryption Algorithm Flow Diagram (Detailed)</text>
  
  <!-- Input Data -->
  <rect x="300" y="60" width="200" height="40" rx="5" fill="#b3e0ff" stroke="#0066cc" stroke-width="2"/>
  <text x="400" y="85" font-family="Arial" font-size="16" text-anchor="middle">Encrypted Data + MAC</text>
  
  <!-- Password & Nonce -->
  <rect x="100" y="120" width="150" height="40" rx="5" fill="#ffcccc" stroke="#cc0000" stroke-width="2"/>
  <text x="175" y="145" font-family="Arial" font-size="16" text-anchor="middle">Password</text>
  
  <rect x="550" y="120" width="150" height="40" rx="5" fill="#ffcccc" stroke="#cc0000" stroke-width="2"/>
  <text x="625" y="145" font-family="Arial" font-size="16" text-anchor="middle">Nonce</text>
  
  <!-- Separation of Encrypted Data and MAC -->
  <line x1="400" y1="100" x2="400" y2="130" stroke="#666" stroke-width="2" marker-end="url(#arrowhead)"/>
  
  <rect x="300" y="130" width="200" height="40" rx="5" fill="#d9d9d9" stroke="#333" stroke-width="2"/>
  <text x="400" y="155" font-family="Arial" font-size="16" text-anchor="middle">Separate Data and MAC</text>
  
  <!-- Key Derivation -->
  <line x1="175" y1="160" x2="175" y2="190" stroke="#666" stroke-width="2" marker-end="url(#arrowhead)"/>
  <line x1="625" y1="160" x2="625" y2="190" stroke="#666" stroke-width="2" marker-end="url(#arrowhead)"/>
  <line x1="175" y1="190" x2="320" y2="190" stroke="#666" stroke-width="2"/>
  <line x1="625" y1="190" x2="480" y2="190" stroke="#666" stroke-width="2"/>
  
  <rect x="300" y="170" width="200" height="40" rx="5" fill="#d9d9d9" stroke="#333" stroke-width="2"/>
  <text x="400" y="195" font-family="Arial" font-size="16" text-anchor="middle">Key Derivation (Blake3)</text>
  
  <!-- Split paths for Encrypted Data and MAC check later -->
  <line x1="400" y1="170" x2="700" y2="170" stroke="#666" stroke-width="2"/>
  <line x1="700" y1="170" x2="700" y2="660" stroke="#666" stroke-width="2"/>
  
  <!-- arrow -->
  <line x1="400" y1="210" x2="400" y2="240" stroke="#666" stroke-width="2" marker-end="url(#arrowhead)"/>
  
  <!-- Password Strengthening -->
  <rect x="300" y="240" width="200" height="40" rx="5" fill="#d9d9d9" stroke="#333" stroke-width="2"/>
  <text x="400" y="265" font-family="Arial" font-size="16" text-anchor="middle">Password Strengthening</text>
  
  <!-- arrows for password -->
  <line x1="400" y1="280" x2="400" y2="310" stroke="#666" stroke-width="2" marker-end="url(#arrowhead)"/>
  
  <!-- Store derived password for later use -->
  <line x1="500" y1="260" x2="750" y2="260" stroke="#666" stroke-width="2"/>
  <line x1="750" y1="260" x2="750" y2="380" stroke="#666" stroke-width="2"/>
  <line x1="750" y1="380" x2="750" y2="450" stroke="#666" stroke-width="2"/>
  <line x1="750" y1="450" x2="750" y2="520" stroke="#666" stroke-width="2"/>
  
  <!-- XOR Decryption -->
  <rect x="300" y="310" width="200" height="40" rx="5" fill="#ffcc99" stroke="#cc6600" stroke-width="2"/>
  <text x="400" y="335" font-family="Arial" font-size="16" text-anchor="middle">XOR Decryption</text>
  
  <!-- Show both nonce and derived password dependency for XOR -->
  <line x1="750" y1="310" x2="500" y2="310" stroke="#666" stroke-width="2" marker-end="url(#arrowhead)"/>
  <line x1="625" y1="190" x2="625" y2="330" stroke="#666" stroke-width="2"/>
  <line x1="625" y1="330" x2="500" y2="330" stroke="#666" stroke-width="2" marker-end="url(#arrowhead)"/>
  
  <!-- Strengthened password to XOR -->
  <line x1="400" y1="280" x2="250" y2="280" stroke="#666" stroke-width="2"/>
  <line x1="250" y1="280" x2="250" y2="330" stroke="#666" stroke-width="2"/>
  <line x1="250" y1="330" x2="300" y2="330" stroke="#666" stroke-width="2" marker-end="url(#arrowhead)"/>
  
  <!-- arrow -->
  <line x1="400" y1="350" x2="400" y2="380" stroke="#666" stroke-width="2" marker-end="url(#arrowhead)"/>
  
  <!-- Dynamic Chunk Unshift -->
  <rect x="300" y="380" width="200" height="40" rx="5" fill="#e6ccff" stroke="#6600cc" stroke-width="2"/>
  <text x="400" y="405" font-family="Arial" font-size="16" text-anchor="middle">Dynamic Chunk Unshift</text>
  
  <!-- Show both nonce and derived password dependency for chunk unshift -->
  <line x1="750" y1="380" x2="500" y2="380" stroke="#666" stroke-width="2" marker-end="url(#arrowhead)"/>
  <line x1="625" y1="330" x2="625" y2="400" stroke="#666" stroke-width="2"/>
  <line x1="625" y1="400" x2="500" y2="400" stroke="#666" stroke-width="2" marker-end="url(#arrowhead)"/>
  
  <!-- arrow -->
  <line x1="400" y1="420" x2="400" y2="450" stroke="#666" stroke-width="2" marker-end="url(#arrowhead)"/>
  
  <!-- Unmix Blocks -->
  <rect x="300" y="450" width="200" height="40" rx="5" fill="#ffffcc" stroke="#999900" stroke-width="2"/>
  <text x="400" y="475" font-family="Arial" font-size="16" text-anchor="middle">Block Unmixing</text>
  
  <!-- Show nonce dependency for unmix blocks -->
  <line x1="750" y1="450" x2="500" y2="450" stroke="#666" stroke-width="2" marker-end="url(#arrowhead)"/>
  <line x1="625" y1="400" x2="675" y2="400" stroke="#666" stroke-width="2"/>
  <line x1="675" y1="400" x2="675" y2="470" stroke="#666" stroke-width="2"/>
  <line x1="675" y1="470" x2="500" y2="470" stroke="#666" stroke-width="2" marker-end="url(#arrowhead)"/>
  
  <!-- arrow -->
  <line x1="400" y1="490" x2="400" y2="520" stroke="#666" stroke-width="2" marker-end="url(#arrowhead)"/>
  
  <!-- S-Box Generation for Inverse -->
  <rect x="300" y="520" width="200" height="40" rx="5" fill="#cce5cc" stroke="#006600" stroke-width="2"/>
  <text x="400" y="545" font-family="Arial" font-size="16" text-anchor="middle">Dynamic S-Box Generation</text>
  
  <!-- Show nonce and strengthened password dependency for S-Box -->
  <line x1="750" y1="520" x2="500" y2="520" stroke="#666" stroke-width="2" marker-end="url(#arrowhead)"/>
  <line x1="675" y1="470" x2="675" y2="540" stroke="#666" stroke-width="2"/>
  <line x1="675" y1="540" x2="500" y2="540" stroke="#666" stroke-width="2" marker-end="url(#arrowhead)"/>
  
  <!-- arrow -->
  <line x1="400" y1="560" x2="400" y2="590" stroke="#666" stroke-width="2" marker-end="url(#arrowhead)"/>
  
  <!-- Inverse S-Box Transformation -->
  <rect x="300" y="590" width="200" height="40" rx="5" fill="#cce5cc" stroke="#006600" stroke-width="2"/>
  <text x="400" y="615" font-family="Arial" font-size="16" text-anchor="middle">Inverse S-Box Transformation</text>
  
  <!-- arrow -->
  <line x1="400" y1="630" x2="400" y2="660" stroke="#666" stroke-width="2" marker-end="url(#arrowhead)"/>
  
  <!-- MAC Verification -->
  <rect x="300" y="660" width="200" height="40" rx="5" fill="#d9d9d9" stroke="#333" stroke-width="2"/>
  <text x="400" y="685" font-family="Arial" font-size="16" text-anchor="middle">MAC Verification</text>
  
  <!-- Show encrypted data for MAC verification -->
  <line x1="700" y1="660" x2="500" y2="660" stroke="#666" stroke-width="2" marker-end="url(#arrowhead)"/>
  
  <!-- Show original data for MAC -->
  <line x1="400" y1="630" x2="550" y2="630" stroke="#666" stroke-width="2"/>
  <line x1="550" y1="630" x2="550" y2="680" stroke="#666" stroke-width="2"/>
  <line x1="550" y1="680" x2="500" y2="680" stroke="#666" stroke-width="2" marker-end="url(#arrowhead)"/>
  
  <!-- arrow -->
  <line x1="400" y1="700" x2="400" y2="730" stroke="#666" stroke-width="2" marker-end="url(#arrowhead)"/>
  
  <!-- Output -->
  <rect x="300" y="730" width="200" height="40" rx="5" fill="#b3e0ff" stroke="#0066cc" stroke-width="2"/>
  <text x="400" y="755" font-family="Arial" font-size="16" text-anchor="middle">Original Data</text>
  
  <!-- MAC Verification Failed -->
  <rect x="550" y="700" width="200" height="40" rx="5" fill="#ffcccc" stroke="#cc0000" stroke-width="2"/>
  <text x="650" y="725" font-family="Arial" font-size="16" text-anchor="middle">MAC Verification Failed</text>
  
  <!-- Arrow for MAC verification failure -->
  <line x1="500" y1="680" x2="550" y2="700" stroke="#666" stroke-width="2" marker-end="url(#arrowhead)"/>
  <text x="525" y="700" font-family="Arial" font-size="12" fill="#cc0000">If MAC invalid</text>
  
  <!-- Legend -->
  <rect x="20" y="40" width="15" height="15" fill="#b3e0ff" stroke="#0066cc" stroke-width="1"/>
  <text x="40" y="52" font-family="Arial" font-size="12">Input/Output Data</text>
  
  <rect x="20" y="60" width="15" height="15" fill="#ffcccc" stroke="#cc0000" stroke-width="1"/>
  <text x="40" y="72" font-family="Arial" font-size="12">User Data/Error</text>
  
  <rect x="20" y="80" width="15" height="15" fill="#d9d9d9" stroke="#333" stroke-width="1"/>
  <text x="40" y="92" font-family="Arial" font-size="12">Processing Steps</text>
  
  <rect x="130" y="40" width="15" height="15" fill="#cce5cc" stroke="#006600" stroke-width="1"/>
  <text x="150" y="52" font-family="Arial" font-size="12">S-Box Operations</text>
  
  <rect x="130" y="60" width="15" height="15" fill="#ffffcc" stroke="#999900" stroke-width="1"/>
  <text x="150" y="72" font-family="Arial" font-size="12">Mixing Operations</text>
  
  <rect x="130" y="80" width="15" height="15" fill="#e6ccff" stroke="#6600cc" stroke-width="1"/>
  <text x="150" y="92" font-family="Arial" font-size="12">Dynamic Chunking</text>
  
  <rect x="240" y="40" width="15" height="15" fill="#ffcc99" stroke="#cc6600" stroke-width="1"/>
  <text x="260" y="52" font-family="Arial" font-size="12">XOR Decryption</text>
  
  <!-- Arrowhead definition -->
  <defs>
    <marker id="arrowhead" markerWidth="10" markerHeight="7" refX="10" refY="3.5" orient="auto">
      <polygon points="0 0, 10 3.5, 0 7" fill="#666"/>
    </marker>
  </defs>
</svg>
